<?xml version="1.0" encoding="utf-8"?>
<!-- Generator: Adobe Illustrator 16.0.0, SVG Export Plug-In . SVG Version: 6.00 Build 0)  -->
<!DOCTYPE svg PUBLIC "-//W3C//DTD SVG 1.1//EN" "http://www.w3.org/Graphics/SVG/1.1/DTD/svg11.dtd">
<svg version="1.1" id="Layer_1" xmlns="http://www.w3.org/2000/svg" xmlns:xlink="http://www.w3.org/1999/xlink" x="0px" y="0px"
	 width="300px" height="300px" viewBox="0 0 300 300" enable-background="new 0 0 300 300" xml:space="preserve">
<circle fill="#C0C0C0" stroke="#666666" stroke-width="5" cx="764.797" cy="764.797" r="758.797"/>
<path stroke="#FFFFFF" stroke-width="5" d="M764.797,764.797L716.351,94.696c37.955-2.746,76.068-2.259,113.943,1.451
	L764.797,764.797z"/>
<path fill="#C80000" stroke="#FFFFFF" stroke-width="5" d="M764.797,764.797l65.497-668.65
	c37.874,3.71,75.362,10.629,112.059,20.687L764.797,764.797z"/>
<path stroke="#FFFFFF" stroke-width="5" d="M764.797,764.797l177.556-647.964c36.701,10.058,72.484,23.212,106.953,39.327
	L764.797,764.797z"/>
<path fill="#C80000" stroke="#FFFFFF" stroke-width="5" d="M764.797,764.797l284.509-608.637
	c34.477,16.115,67.515,35.13,98.77,56.838L764.797,764.797z"/>
<path stroke="#FFFFFF" stroke-width="5" d="M764.797,764.797l383.278-551.799c31.258,21.711,60.608,46.032,87.738,72.711
	L764.797,764.797z"/>
<path fill="#C80000" stroke="#FFFFFF" stroke-width="5" d="M764.797,764.797l471.017-479.088
	c27.141,26.68,51.958,55.615,74.194,86.494L764.797,764.797z"/>
<path stroke="#FFFFFF" stroke-width="5" d="M764.797,764.797l545.211-392.594c22.234,30.881,41.805,63.595,58.51,97.788
	L764.797,764.797z"/>
<path fill="#C80000" stroke="#FFFFFF" stroke-width="5" d="M764.797,764.797l603.721-294.806
	c16.691,34.196,30.458,69.747,41.135,106.27L764.797,764.797z"/>
<path stroke="#FFFFFF" stroke-width="5" d="M764.797,764.797l644.855-188.536c10.679,36.524,18.236,73.889,22.586,111.693
	L764.797,764.797z"/>
<path fill="#C80000" stroke="#FFFFFF" stroke-width="5" d="M764.797,764.797l667.441-76.843c4.354,37.803,5.486,75.91,3.385,113.905
	L764.797,764.797z"/>
<path stroke="#FFFFFF" stroke-width="5" d="M764.797,764.797l670.826,37.063c-2.094,37.995-7.419,75.74-15.909,112.837
	L764.797,764.797z"/>
<path fill="#C80000" stroke="#FFFFFF" stroke-width="5" d="M764.797,764.797l654.917,149.899
	c-8.492,37.093-20.115,73.398-34.752,108.522L764.797,764.797z"/>
<path stroke="#FFFFFF" stroke-width="5" d="M764.797,764.797l620.165,258.422c-14.638,35.128-32.234,68.945-52.597,101.093
	L764.797,764.797z"/>
<path fill="#C80000" stroke="#FFFFFF" stroke-width="5" d="M764.797,764.797l567.568,359.515
	c-20.361,32.146-43.421,62.503-68.919,90.748L764.797,764.797z"/>
<path stroke="#FFFFFF" stroke-width="5" d="M764.797,764.797l498.649,450.263c-25.504,28.246-53.363,54.269-83.271,77.792
	L764.797,764.797z"/>
<path fill="#C80000" stroke="#FFFFFF" stroke-width="5" d="M764.797,764.797l415.378,528.055
	c-29.907,23.526-61.761,44.471-95.22,62.604L764.797,764.797z"/>
<path stroke="#FFFFFF" stroke-width="5" d="M764.797,764.797l320.158,590.658c-33.447,18.135-68.388,33.399-104.42,45.614
	L764.797,764.797z"/>
<path fill="#C80000" stroke="#FFFFFF" stroke-width="5" d="M764.797,764.797l215.738,636.272
	c-36.044,12.216-73.053,21.355-110.637,27.304L764.797,764.797z"/>
<path stroke="#FFFFFF" stroke-width="5" d="M764.797,764.797l105.102,663.576c-37.587,5.959-75.604,8.708-113.658,8.224
	L764.797,764.797z"/>
<path fill="#C80000" stroke="#FFFFFF" stroke-width="5" d="M764.797,764.797l-8.557,671.8c-38.051-0.489-75.99-4.205-113.411-11.114
	L764.797,764.797z"/>
<path stroke="#FFFFFF" stroke-width="5" d="M764.797,764.797l-121.968,660.686c-37.423-6.906-74.187-16.982-109.902-30.115
	L764.797,764.797z"/>
<path fill="#C80000" stroke="#FFFFFF" stroke-width="5" d="M764.797,764.797l-231.87,630.57
	c-35.715-13.132-70.249-29.274-103.231-48.257L764.797,764.797z"/>
<path stroke="#FFFFFF" stroke-width="5" d="M764.797,764.797L429.695,1347.11c-32.983-18.979-64.291-40.726-93.593-65.005
	L764.797,764.797z"/>
<path fill="#C80000" stroke="#FFFFFF" stroke-width="5" d="M764.797,764.797l-428.694,517.309
	c-29.301-24.282-56.483-51.007-81.259-79.896L764.797,764.797z"/>
<path stroke="#FFFFFF" stroke-width="5" d="M764.797,764.797L254.844,1202.21c-24.775-28.879-47.052-59.815-66.588-92.471
	L764.797,764.797z"/>
<path fill="#C80000" stroke="#FFFFFF" stroke-width="5" d="M764.797,764.797l-576.541,344.942
	c-19.537-32.657-36.266-66.906-50.004-102.396L764.797,764.797z"/>
<path stroke="#FFFFFF" stroke-width="5" d="M764.797,764.797l-626.545,242.547c-13.737-35.489-24.435-72.082-31.977-109.382
	L764.797,764.797z"/>
<path fill="#C80000" stroke="#FFFFFF" stroke-width="5" d="M764.797,764.797L106.275,897.962
	c-7.543-37.297-11.901-75.165-13.034-113.199L764.797,764.797z"/>
<path stroke="#FFFFFF" stroke-width="5" d="M764.797,764.797L93.242,784.763c-1.13-38.037,0.973-76.104,6.285-113.784
	L764.797,764.797z"/>
<path fill="#C80000" stroke="#FFFFFF" stroke-width="5" d="M764.797,764.797L99.526,670.979c5.316-37.68,13.82-74.84,25.427-111.082
	L764.797,764.797z"/>
<path stroke="#FFFFFF" stroke-width="5" d="M764.797,764.797l-639.844-204.9c11.604-36.239,26.268-71.428,43.829-105.185
	L764.797,764.797z"/>
<path fill="#C80000" stroke="#FFFFFF" stroke-width="5" d="M764.797,764.797L168.782,454.712
	c17.564-33.758,37.965-65.964,60.98-96.267L764.797,764.797z"/>
<path stroke="#FFFFFF" stroke-width="5" d="M764.797,764.797L229.763,358.445c23.016-30.305,48.564-58.599,76.368-84.578
	L764.797,764.797z"/>
<path fill="#C80000" stroke="#FFFFFF" stroke-width="5" d="M764.797,764.797l-458.666-490.93
	c27.806-25.978,57.771-49.547,89.567-70.451L764.797,764.797z"/>
<path stroke="#FFFFFF" stroke-width="5" d="M764.797,764.797L395.698,203.416c31.795-20.906,65.31-39.074,100.18-54.303
	L764.797,764.797z"/>
<path fill="#C80000" stroke="#FFFFFF" stroke-width="5" d="M764.797,764.797L495.878,149.113
	c34.875-15.232,70.977-27.474,107.922-36.593L764.797,764.797z"/>
<path fill="#009600" stroke="#FFFFFF" stroke-width="5" d="M764.797,764.797L603.8,112.521
	c36.943-9.118,74.598-15.083,112.551-17.825L764.797,764.797z"/>
<text transform="matrix(-0.9999 -0.0127 0.0127 -0.9999 808.0137 132.562)" fill="#FFFFFF" font-family="'ArialMT'" font-size="63.2331">26</text>
<text transform="matrix(-0.9834 -0.1815 0.1815 -0.9834 896.9492 145.7646)" fill="#FFFFFF" font-family="'ArialMT'" font-size="63.2331">3</text>
<text transform="matrix(-0.9386 -0.3451 0.3451 -0.9386 1016.1729 183.0713)" fill="#FFFFFF" font-family="'ArialMT'" font-size="63.2331">35</text>
<text transform="matrix(-0.8667 -0.4988 0.4988 -0.8667 1110.874 233.9297)" fill="#FFFFFF" font-family="'ArialMT'" font-size="63.2331">12</text>
<text transform="matrix(-0.77 -0.6381 0.6381 -0.77 1195.6084 300.043)" fill="#FFFFFF" font-family="'ArialMT'" font-size="63.2331">28</text>
<text transform="matrix(-0.6511 -0.759 0.759 -0.6511 1256.5117 366.1807)" fill="#FFFFFF" font-family="'ArialMT'" font-size="63.2331">7</text>
<text transform="matrix(-0.5134 -0.8581 0.8581 -0.5134 1325.8301 470.1055)" fill="#FFFFFF" font-family="'ArialMT'" font-size="63.2331">29</text>
<text transform="matrix(-0.361 -0.9326 0.9326 -0.361 1367.5615 569.1748)" fill="#FFFFFF" font-family="'ArialMT'" font-size="63.2331">18</text>
<text transform="matrix(-0.1982 -0.9802 0.9802 -0.1982 1391.9541 673.8574)" fill="#FFFFFF" font-family="'ArialMT'" font-size="63.2331">22</text>
<text transform="matrix(-0.0297 -0.9996 0.9996 -0.0297 1397.7773 763.5713)" fill="#FFFFFF" font-family="'ArialMT'" font-size="63.2331">9</text>
<text transform="matrix(0.1396 -0.9902 0.9902 0.1396 1386.4307 887.9727)" fill="#FFFFFF" font-family="'ArialMT'" font-size="63.2331">31</text>
<text transform="matrix(0.305 -0.9524 0.9524 0.305 1356.665 991.2588)" fill="#FFFFFF" font-family="'ArialMT'" font-size="63.2331">14</text>
<text transform="matrix(0.4615 -0.8871 0.8871 0.4615 1309.8799 1088.0273)" fill="#FFFFFF" font-family="'ArialMT'" font-size="63.2331">20</text>
<text transform="matrix(0.6048 -0.7964 0.7964 0.6048 1258.0508 1161.4961)" fill="#FFFFFF" font-family="'ArialMT'" font-size="63.2331">1</text>
<text transform="matrix(0.7307 -0.6827 0.6827 0.7307 1171.0654 1251.1533)" fill="#FFFFFF" font-family="'ArialMT'" font-size="63.2331">33</text>
<text transform="matrix(0.8356 -0.5494 0.5494 0.8356 1083.0293 1312.8174)" fill="#FFFFFF" font-family="'ArialMT'" font-size="63.2331">16</text>
<text transform="matrix(0.9164 -0.4003 0.4003 0.9164 985.833 1358.7188)" fill="#FFFFFF" font-family="'ArialMT'" font-size="63.2331">24</text>
<text transform="matrix(0.9709 -0.2396 0.2396 0.9709 899.3525 1383.3135)" fill="#FFFFFF" font-family="'ArialMT'" font-size="63.2331">5</text>
<text transform="matrix(0.9974 -0.0721 0.0721 0.9974 775.3457 1398.4297)" fill="#FFFFFF" font-family="'ArialMT'" font-size="63.2331">10</text>
<text transform="matrix(0.9952 0.0975 -0.0975 0.9952 668.1113 1391.0957)" fill="#FFFFFF" font-family="'ArialMT'" font-size="63.2331">23</text>
<text transform="matrix(0.9644 0.2643 -0.2643 0.9644 580.6172 1370.3926)" fill="#FFFFFF" font-family="'ArialMT'" font-size="63.2331">8</text>
<text transform="matrix(0.9059 0.4235 -0.4235 0.9059 464.9873 1323.1123)" fill="#FFFFFF" font-family="'ArialMT'" font-size="63.2331">30</text>
<text transform="matrix(0.8213 0.5705 -0.5705 0.8213 376.873 1265.751)" fill="#FFFFFF" font-family="'ArialMT'" font-size="63.2331">11</text>
<text transform="matrix(0.7131 0.7011 -0.7011 0.7131 296.1143 1191.3389)" fill="#FFFFFF" font-family="'ArialMT'" font-size="63.2331">36</text>
<text transform="matrix(0.5843 0.8115 -0.8115 0.5843 230.7744 1105.9932)" fill="#FFFFFF" font-family="'ArialMT'" font-size="63.2331">13</text>
<text transform="matrix(0.4388 0.8986 -0.8986 0.4388 180.7803 1010.8408)" fill="#FFFFFF" font-family="'ArialMT'" font-size="63.2331">27</text>
<text transform="matrix(0.2806 0.9598 -0.9598 0.2806 152.542 925.4834)" fill="#FFFFFF" font-family="'ArialMT'" font-size="63.2331">6</text>
<text transform="matrix(0.1144 0.9934 -0.9934 0.1144 132.1792 802.2266)" fill="#FFFFFF" font-family="'ArialMT'" font-size="63.2331">34</text>
<text transform="matrix(-0.0552 0.9985 -0.9985 -0.0552 134.9551 694.7734)" fill="#FFFFFF" font-family="'ArialMT'" font-size="63.2331">17</text>
<text transform="matrix(-0.2231 0.9748 -0.9748 -0.2231 155.8506 589.3447)" fill="#FFFFFF" font-family="'ArialMT'" font-size="63.2331">25</text>
<text transform="matrix(-0.3846 0.9231 -0.9231 -0.3846 187.502 505.1865)" fill="#FFFFFF" font-family="'ArialMT'" font-size="63.2331">2</text>
<text transform="matrix(-0.5351 0.8448 -0.8448 -0.5351 249.0869 396.5)" fill="#FFFFFF" font-family="'ArialMT'" font-size="63.2331">21</text>
<text transform="matrix(-0.6702 0.7422 -0.7422 -0.6702 306.9609 327.6943)" fill="#FFFFFF" font-family="'ArialMT'" font-size="63.2331">4</text>
<text transform="matrix(-0.786 0.6183 -0.6183 -0.786 401.2354 245.7344)" fill="#FFFFFF" font-family="'ArialMT'" font-size="63.2331">19</text>
<text transform="matrix(-0.8792 0.4765 -0.4765 -0.8792 494.1807 191.7617)" fill="#FFFFFF" font-family="'ArialMT'" font-size="63.2331">15</text>
<text transform="matrix(-0.947 0.3211 -0.3211 -0.947 594.9229 154.2676)" fill="#FFFFFF" font-family="'ArialMT'" font-size="63.2331">32</text>
<text transform="matrix(-0.9877 0.1564 -0.1564 -0.9877 683.1738 137.0903)" fill="#FFFFFF" font-family="'ArialMT'" font-size="63.2331">0</text>
<circle fill="none" stroke="#FFFFFF" stroke-width="5" cx="764.797" cy="764.797" r="573.05"/>
<path stroke="#FFFFFF" stroke-width="5" d="M764.797,290.549c261.916,0,474.248,212.33,474.248,474.248
	c0,261.916-212.332,474.248-474.248,474.248c-261.918,0-474.248-212.332-474.248-474.248
	C290.549,502.879,502.879,290.549,764.797,290.549z"/>
<path fill="none" stroke="#FFFFFF" stroke-width="5" d="M764.797,764.797L868.23,645.246"/>
<path fill="none" stroke="#FFFFFF" stroke-width="5" d="M764.797,764.797L884.348,868.23"/>
<path fill="none" stroke="#FFFFFF" stroke-width="5" d="M764.797,764.797L661.365,884.348"/>
<path fill="none" stroke="#FFFFFF" stroke-width="5" d="M764.797,764.797L645.246,661.365"/>
<circle fill="none" stroke="#FFFFFF" stroke-width="5" cx="764.797" cy="764.797" r="79.041"/>
<circle stroke="#FFFFFF" stroke-width="5" cx="764.797" cy="764.797" r="39.522"/>
</svg>
